<?xml version="1.0" standalone="no"?>
<!DOCTYPE svg PUBLIC "-//W3C//DTD SVG 20010904//EN"
 "http://www.w3.org/TR/2001/REC-SVG-20010904/DTD/svg10.dtd">
<svg version="1.0" xmlns="http://www.w3.org/2000/svg"
 width="500.000000pt" height="500.000000pt" viewBox="0 0 500.000000 500.000000"
 preserveAspectRatio="xMidYMid meet">
<metadata>
Created by potrace 1.11, written by Peter Selinger 2001-2013
</metadata>
<g transform="translate(0.000000,500.000000) scale(0.100000,-0.100000)"
fill="#000000" stroke="none">
<path d="M920 2495 l0 -1585 1585 0 1585 0 0 1585 0 1585 -1585 0 -1585 0 0
-1585z m3080 0 l0 -1495 -1495 0 -1495 0 0 1495 0 1495 1495 0 1495 0 0 -1495z"/>
<path d="M1780 3360 c-415 -65 -660 -585 -518 -1100 84 -305 292 -494 548
-495 73 0 93 4 140 27 73 36 120 76 186 159 87 110 117 96 160 -74 l26 -107
34 0 34 0 0 341 c0 215 4 347 10 360 9 16 22 19 80 19 l70 0 0 35 0 35 -360 0
-360 0 0 -35 0 -35 104 0 c57 0 111 -3 120 -6 24 -9 23 -398 -2 -466 -56 -154
-199 -228 -322 -165 -61 30 -104 96 -127 195 -16 68 -18 127 -18 512 0 332 3
449 14 495 30 133 98 215 196 235 108 22 201 -7 290 -91 90 -85 148 -186 209
-369 31 -91 34 -95 64 -98 l32 -3 0 310 0 311 -34 0 c-31 0 -36 -5 -62 -57
-37 -75 -54 -77 -145 -23 -136 83 -245 109 -369 90z"/>
<path d="M2620 3295 l0 -35 88 0 c55 0 92 -4 100 -12 17 -17 17 -1349 0 -1366
-8 -8 -45 -12 -100 -12 l-88 0 0 -35 0 -35 610 0 610 0 0 118 c0 66 3 214 7
330 l6 212 -35 0 c-34 0 -35 -1 -48 -57 -59 -268 -156 -449 -271 -507 -50 -24
-62 -26 -196 -26 -130 0 -143 2 -153 19 -15 30 -14 1343 2 1359 8 8 45 12 100
12 l88 0 0 35 0 35 -360 0 -360 0 0 -35z"/>
</g>
</svg>
